<mxfile host="app.diagrams.net" modified="2020-03-28T10:50:52.826Z" agent="Mozilla/5.0 (Macintosh; Intel Mac OS X 10_13_6) AppleWebKit/537.36 (KHTML, like Gecko) Chrome/80.0.3987.149 Safari/537.36" etag="zt5ATo9Q2WdajxHAeB9V" version="12.9.3" type="github">
  <diagram id="Jh0g8GQ7WS2PKu4_E1Yr" name="Page-1">
    <mxGraphModel dx="885" dy="1048" grid="1" gridSize="10" guides="1" tooltips="1" connect="1" arrows="1" fold="1" page="1" pageScale="1" pageWidth="827" pageHeight="1169" math="0" shadow="0">
      <root>
        <mxCell id="0" />
        <mxCell id="1" parent="0" />
        <mxCell id="WFPA-bz6SRxzGDUWhu5E-20" style="edgeStyle=orthogonalEdgeStyle;rounded=0;html=1;exitX=1;exitY=0.5;entryX=0;entryY=0.5;endArrow=classic;endFill=1;jettySize=auto;orthogonalLoop=1;startArrow=none;startFill=0;strokeColor=#999999;" edge="1" parent="1" source="WFPA-bz6SRxzGDUWhu5E-23" target="WFPA-bz6SRxzGDUWhu5E-28">
          <mxGeometry relative="1" as="geometry" />
        </mxCell>
        <mxCell id="WFPA-bz6SRxzGDUWhu5E-21" style="edgeStyle=orthogonalEdgeStyle;rounded=0;html=1;exitX=1;exitY=0.75;entryX=0;entryY=0.75;startArrow=none;startFill=0;endArrow=classic;endFill=1;jettySize=auto;orthogonalLoop=1;strokeColor=#999999;" edge="1" parent="1" source="WFPA-bz6SRxzGDUWhu5E-23" target="WFPA-bz6SRxzGDUWhu5E-32">
          <mxGeometry relative="1" as="geometry">
            <Array as="points">
              <mxPoint x="180" y="185" />
              <mxPoint x="180" y="220" />
              <mxPoint x="340" y="220" />
              <mxPoint x="340" y="185" />
            </Array>
          </mxGeometry>
        </mxCell>
        <mxCell id="WFPA-bz6SRxzGDUWhu5E-22" style="edgeStyle=orthogonalEdgeStyle;shape=link;rounded=0;html=1;exitX=0.5;exitY=0;entryX=0.5;entryY=1;startArrow=none;startFill=0;endArrow=classic;endFill=1;jettySize=auto;orthogonalLoop=1;strokeColor=#999999;" edge="1" parent="1" source="WFPA-bz6SRxzGDUWhu5E-23" target="WFPA-bz6SRxzGDUWhu5E-24">
          <mxGeometry relative="1" as="geometry" />
        </mxCell>
        <mxCell id="WFPA-bz6SRxzGDUWhu5E-23" value="&lt;b&gt;Data Engineering&lt;/b&gt;" style="rounded=1;whiteSpace=wrap;html=1;fillColor=#f8cecc;strokeColor=#b85450;" vertex="1" parent="1">
          <mxGeometry x="40" y="140" width="120" height="60" as="geometry" />
        </mxCell>
        <mxCell id="WFPA-bz6SRxzGDUWhu5E-24" value="&lt;b&gt;&lt;font style=&quot;font-size: 18px&quot;&gt;Data Science&lt;/font&gt;&lt;/b&gt;" style="rounded=1;whiteSpace=wrap;html=1;fillColor=#f5f5f5;strokeColor=#666666;" vertex="1" parent="1">
          <mxGeometry x="190" y="40" width="140" height="60" as="geometry" />
        </mxCell>
        <mxCell id="WFPA-bz6SRxzGDUWhu5E-25" style="edgeStyle=orthogonalEdgeStyle;rounded=0;html=1;exitX=1;exitY=0.5;entryX=0;entryY=0.5;startArrow=none;startFill=0;endArrow=classic;endFill=1;jettySize=auto;orthogonalLoop=1;strokeColor=#999999;" edge="1" parent="1" source="WFPA-bz6SRxzGDUWhu5E-28" target="WFPA-bz6SRxzGDUWhu5E-32">
          <mxGeometry relative="1" as="geometry" />
        </mxCell>
        <mxCell id="WFPA-bz6SRxzGDUWhu5E-26" style="edgeStyle=orthogonalEdgeStyle;rounded=0;html=1;exitX=1;exitY=0.25;entryX=0;entryY=0.25;startArrow=none;startFill=0;endArrow=classic;endFill=1;jettySize=auto;orthogonalLoop=1;strokeColor=#999999;" edge="1" parent="1" source="WFPA-bz6SRxzGDUWhu5E-28" target="WFPA-bz6SRxzGDUWhu5E-33">
          <mxGeometry relative="1" as="geometry">
            <Array as="points">
              <mxPoint x="340" y="155" />
              <mxPoint x="340" y="130" />
              <mxPoint x="500" y="130" />
              <mxPoint x="500" y="115" />
            </Array>
          </mxGeometry>
        </mxCell>
        <mxCell id="WFPA-bz6SRxzGDUWhu5E-27" style="edgeStyle=orthogonalEdgeStyle;shape=link;rounded=0;html=1;exitX=0.5;exitY=0;entryX=0.5;entryY=1;startArrow=none;startFill=0;endArrow=classic;endFill=1;jettySize=auto;orthogonalLoop=1;strokeColor=#999999;" edge="1" parent="1" source="WFPA-bz6SRxzGDUWhu5E-28" target="WFPA-bz6SRxzGDUWhu5E-24">
          <mxGeometry relative="1" as="geometry" />
        </mxCell>
        <mxCell id="WFPA-bz6SRxzGDUWhu5E-28" value="&lt;b&gt;Advanced Analytics&lt;/b&gt;" style="rounded=1;whiteSpace=wrap;html=1;fillColor=#d5e8d4;strokeColor=#82b366;" vertex="1" parent="1">
          <mxGeometry x="200" y="140" width="120" height="60" as="geometry" />
        </mxCell>
        <mxCell id="WFPA-bz6SRxzGDUWhu5E-29" style="edgeStyle=orthogonalEdgeStyle;rounded=0;html=1;exitX=1;exitY=0.5;entryX=0;entryY=0.75;startArrow=none;startFill=0;endArrow=classic;endFill=1;jettySize=auto;orthogonalLoop=1;strokeColor=#999999;" edge="1" parent="1" source="WFPA-bz6SRxzGDUWhu5E-32" target="WFPA-bz6SRxzGDUWhu5E-33">
          <mxGeometry relative="1" as="geometry" />
        </mxCell>
        <mxCell id="WFPA-bz6SRxzGDUWhu5E-30" style="edgeStyle=orthogonalEdgeStyle;rounded=0;html=1;exitX=1;exitY=0.75;entryX=0;entryY=0.5;startArrow=none;startFill=0;endArrow=classic;endFill=1;jettySize=auto;orthogonalLoop=1;strokeColor=#999999;" edge="1" parent="1" source="WFPA-bz6SRxzGDUWhu5E-32" target="WFPA-bz6SRxzGDUWhu5E-34">
          <mxGeometry relative="1" as="geometry" />
        </mxCell>
        <mxCell id="WFPA-bz6SRxzGDUWhu5E-31" style="edgeStyle=orthogonalEdgeStyle;shape=link;rounded=0;html=1;exitX=0.5;exitY=0;entryX=0.5;entryY=1;startArrow=none;startFill=0;endArrow=classic;endFill=1;jettySize=auto;orthogonalLoop=1;strokeColor=#999999;" edge="1" parent="1" source="WFPA-bz6SRxzGDUWhu5E-32" target="WFPA-bz6SRxzGDUWhu5E-24">
          <mxGeometry relative="1" as="geometry" />
        </mxCell>
        <mxCell id="WFPA-bz6SRxzGDUWhu5E-32" value="&lt;b&gt;Business Intelligence&amp;nbsp;&lt;/b&gt;" style="rounded=1;whiteSpace=wrap;html=1;fillColor=#f5f5f5;strokeColor=#666666;" vertex="1" parent="1">
          <mxGeometry x="360" y="140" width="120" height="60" as="geometry" />
        </mxCell>
        <mxCell id="WFPA-bz6SRxzGDUWhu5E-33" value="Software Solutions&lt;br&gt;" style="rounded=0;whiteSpace=wrap;html=1;dashed=1;fillColor=#fff2cc;strokeColor=#d6b656;" vertex="1" parent="1">
          <mxGeometry x="520" y="100" width="120" height="60" as="geometry" />
        </mxCell>
        <mxCell id="WFPA-bz6SRxzGDUWhu5E-34" value="Technical Articles&lt;br&gt;" style="rounded=0;whiteSpace=wrap;html=1;dashed=1;fillColor=#fff2cc;strokeColor=#d6b656;" vertex="1" parent="1">
          <mxGeometry x="520" y="190" width="120" height="60" as="geometry" />
        </mxCell>
        <mxCell id="WFPA-bz6SRxzGDUWhu5E-35" value="&lt;div style=&quot;text-align: left&quot;&gt;&lt;span&gt;Infrastructure&lt;/span&gt;&lt;br&gt;&lt;/div&gt;&lt;div style=&quot;text-align: left&quot;&gt;&lt;span&gt;Data Warehouse&lt;/span&gt;&lt;br&gt;&lt;/div&gt;&lt;div style=&quot;text-align: left&quot;&gt;&lt;span&gt;Data Lakes&lt;/span&gt;&lt;/div&gt;&lt;div style=&quot;text-align: left&quot;&gt;&lt;span&gt;Big Data&lt;/span&gt;&lt;/div&gt;&lt;div style=&quot;text-align: left&quot;&gt;Data Modelling&lt;/div&gt;&lt;div style=&quot;text-align: left&quot;&gt;Data Cleaning&lt;/div&gt;&lt;div style=&quot;text-align: left&quot;&gt;&lt;br&gt;&lt;/div&gt;" style="text;html=1;strokeColor=none;fillColor=none;align=center;verticalAlign=top;whiteSpace=wrap;rounded=0;dashed=1;" vertex="1" parent="1">
          <mxGeometry x="40" y="230" width="120" height="110" as="geometry" />
        </mxCell>
        <mxCell id="WFPA-bz6SRxzGDUWhu5E-36" value="&lt;div style=&quot;text-align: left&quot;&gt;Data analysis&lt;/div&gt;&lt;div style=&quot;text-align: left&quot;&gt;&lt;span&gt;Models&lt;/span&gt;&lt;br&gt;&lt;/div&gt;&lt;div style=&quot;text-align: left&quot;&gt;&lt;span&gt;Statistics&lt;/span&gt;&lt;/div&gt;&lt;div style=&quot;text-align: left&quot;&gt;&lt;span&gt;Optimization&lt;/span&gt;&lt;/div&gt;&lt;div style=&quot;text-align: left&quot;&gt;Machine Learning&lt;br&gt;&lt;/div&gt;&lt;div style=&quot;text-align: left&quot;&gt;Artificial Intelligence&lt;/div&gt;&lt;div style=&quot;text-align: left&quot;&gt;Computations&lt;/div&gt;" style="text;html=1;strokeColor=none;fillColor=none;align=center;verticalAlign=top;whiteSpace=wrap;rounded=0;dashed=1;horizontal=1;" vertex="1" parent="1">
          <mxGeometry x="200" y="230" width="120" height="120" as="geometry" />
        </mxCell>
        <mxCell id="WFPA-bz6SRxzGDUWhu5E-37" value="&lt;div style=&quot;text-align: left&quot;&gt;Visualizations&lt;/div&gt;&lt;div style=&quot;text-align: left&quot;&gt;Dashboards&lt;/div&gt;&lt;div style=&quot;text-align: left&quot;&gt;Benchmarks&lt;/div&gt;&lt;div style=&quot;text-align: left&quot;&gt;Interactive Reports&lt;/div&gt;&lt;div style=&quot;text-align: left&quot;&gt;Communication&lt;/div&gt;" style="text;html=1;strokeColor=none;fillColor=none;align=center;verticalAlign=top;whiteSpace=wrap;rounded=0;dashed=1;" vertex="1" parent="1">
          <mxGeometry x="360" y="230" width="120" height="110" as="geometry" />
        </mxCell>
      </root>
    </mxGraphModel>
  </diagram>
</mxfile>
